<?xml version="1.0" standalone="no"?>
<!DOCTYPE svg PUBLIC "-//W3C//DTD SVG 20010904//EN"
 "http://www.w3.org/TR/2001/REC-SVG-20010904/DTD/svg10.dtd">
<svg version="1.0" xmlns="http://www.w3.org/2000/svg"
 width="813.000000pt" height="705.000000pt" viewBox="0 0 813.000000 705.000000"
 preserveAspectRatio="xMidYMid meet">

<g transform="translate(0.000000,705.000000) scale(0.100000,-0.100000)"
fill="#000000" stroke="none">
<path d="M1784 6902 c-196 -217 -332 -471 -394 -732 -18 -78 -22 -124 -22
-255 0 -223 24 -328 114 -510 70 -141 145 -242 283 -380 251 -251 571 -469
860 -585 209 -84 557 -170 690 -170 37 0 75 42 75 82 0 32 -52 188 -184 555
-78 217 -84 231 -128 263 -32 24 -41 25 -238 31 -226 8 -294 19 -445 74 -198
71 -402 188 -511 293 -131 125 -196 223 -245 367 -22 63 -24 87 -24 235 0 144
3 174 23 240 54 174 117 309 211 450 32 47 61 91 65 98 5 9 -3 12 -31 12 -34
0 -44 -7 -99 -68z"/>
<path d="M6301 6878 c118 -181 184 -322 229 -493 20 -74 24 -113 23 -220 -1
-181 -37 -302 -129 -433 -60 -86 -92 -119 -184 -197 -128 -106 -294 -197 -485
-265 -145 -51 -197 -60 -410 -66 -291 -9 -288 -7 -376 -255 -28 -79 -55 -155
-59 -169 -4 -14 -38 -108 -74 -210 -36 -102 -66 -200 -66 -218 0 -42 38 -82
78 -82 36 0 195 25 285 44 451 99 847 316 1224 671 232 220 377 460 424 705
17 86 16 346 0 439 -45 251 -180 513 -400 773 -52 63 -59 67 -98 67 l-43 1 61
-92z"/>
<path d="M3381 5212 c-90 -45 -98 -119 -33 -287 109 -278 144 -369 188 -488
40 -109 53 -133 82 -155 l35 -27 429 -3 c424 -3 430 -2 468 19 46 26 41 17
135 259 217 558 219 564 175 635 -42 67 -15 65 -767 65 -626 0 -681 -1 -712
-18z"/>
<path d="M2159 4277 c-20 -45 112 -499 221 -762 23 -55 54 -129 68 -165 79
-201 278 -550 416 -730 184 -241 257 -305 285 -252 5 9 16 69 25 132 9 63 21
138 26 165 10 55 43 257 60 375 6 41 18 118 26 170 9 52 24 149 34 215 11 66
28 179 40 250 30 189 35 242 21 258 -11 14 -49 27 -221 77 -41 13 -100 31
-130 40 -30 10 -102 33 -160 50 -58 17 -132 40 -165 50 -33 10 -132 40 -220
65 -88 26 -187 55 -219 66 -77 25 -94 24 -107 -4z"/>
<path d="M5800 4249 c-396 -121 -501 -152 -590 -179 -365 -109 -412 -125 -421
-142 -7 -12 -6 -42 0 -86 13 -82 48 -306 55 -347 3 -16 10 -59 15 -95 6 -36
19 -121 30 -190 11 -69 25 -161 31 -205 6 -44 15 -100 20 -125 5 -25 14 -81
20 -125 6 -44 15 -98 20 -120 4 -22 14 -83 20 -135 17 -129 25 -150 61 -150
24 0 41 15 103 88 149 176 236 297 347 487 207 352 377 781 499 1257 19 71 21
90 10 103 -18 22 -38 19 -220 -36z"/>
<path d="M3673 4053 c-30 -6 -83 -62 -83 -88 0 -12 -4 -35 -9 -51 -5 -16 -14
-67 -20 -114 -28 -203 -50 -346 -161 -1045 -5 -33 -19 -118 -30 -190 -11 -71
-24 -155 -30 -185 -5 -30 -26 -161 -46 -290 -20 -129 -40 -260 -45 -290 -4
-30 -17 -113 -28 -185 -11 -71 -30 -188 -41 -260 -61 -382 -70 -446 -70 -505
0 -54 2 -60 39 -91 21 -19 83 -59 137 -90 55 -31 234 -135 399 -232 382 -223
378 -221 420 -214 19 3 144 70 277 148 213 124 322 187 561 325 150 87 149 82
113 323 -15 102 -31 206 -36 231 -5 25 -14 81 -20 125 -6 44 -15 100 -20 125
-5 25 -14 81 -20 125 -6 44 -15 100 -20 125 -5 25 -14 81 -20 125 -16 116 -30
204 -40 255 -5 25 -13 86 -20 135 -6 50 -15 108 -20 130 -5 22 -13 72 -19 110
-17 113 -51 333 -66 430 -8 50 -24 149 -34 220 -33 214 -51 327 -61 375 -5 25
-18 115 -30 200 -39 280 -47 300 -118 320 -36 9 -790 13 -839 3z"/>
</g>
</svg>
